#N canvas 334 101 1033 738 10;
#X msg 540 83 \; pd dsp 1;
#X msg 447 314 1;
#X obj 447 336 + 1;
#X floatatom 447 358 5 0 0 0 - - -;
#X floatatom 450 418 5 0 0 0 - - -;
#X obj 446 285 metro 200;
#X obj 608 405 random 18;
#X obj 638 256 bonk~;
#X floatatom 599 324 5 0 0 0 - - -;
#X obj 602 356 t b;
#X obj 440 266 tgl 15 0 empty empty empty 17 7 0 10 -262144 -1 -1 0
1;
#X floatatom 491 263 5 0 0 0 - - -;
#X obj 450 396 % 18;
#X floatatom 699 325 5 0 0 0 - - -;
#X obj 608 383 bng 15 250 50 0 empty empty empty 17 7 0 10 -262144
-1 -1;
#X obj 666 75 vsl 15 128 0 127 0 0 empty empty empty 0 -9 0 10 -262144
-1 -1 6300 1;
#X msg 665 215 minvel \$1;
#X floatatom 713 181 5 0 0 0 - - -;
#X obj 646 298 unpack f f;
#N canvas 0 22 450 278 (subpatch) 0;
#X array sequencer1 16 float 3;
#A 0 16.3286 15.4286 5.27143 9.64286 15.1714 16.3286 11.8286 14.4 14.2714
14.1429 12.4714 16.4571 6.29999 12.4714 5.91429 16.4571;
#X coords 0 18 16 0 200 140 1 0 0;
#X restore 781 327 graph;
#X obj 593 444 tabread sequencer1;
#X floatatom 593 465 5 0 0 0 - - -;
#X obj 592 501 i;
#X floatatom 494 361 5 0 0 0 - - -;
#X obj 398 449 s currentlocation;
#X obj 784 474 hsl 195 15 0 16 0 0 empty currentlocation empty -2 -8
0 10 -262144 -1 -1 14550 1;
#X obj 556 301 r single_sound;
#X obj 441 239 r sound_sequence;
#X obj 43 14 cnv 15 300 550 cnv-s cnv-r PdWebParty 80 24 0 24 -99865
-262144 0;
#X obj 48 59 cnv 15 290 450 cnv2-s cnv2-r empty 20 12 0 14 -228856
-66577 0;
#X text 54 63 PdWebParty:;
#X obj 83 296 bng 50 250 50 0 single_sound empty empty 17 7 0 10 -262144
-1 -1;
#X obj 158 298 tgl 50 0 sound_sequence empty empty 17 7 0 10 -262144
-1 -1 0 1;
#X obj 430 671 dac~;
#X obj 431 624 readsf~;
#X obj 478 562 i \$1;
#X msg 427 559 1;
#X msg 479 585 open sounds/\$1.wav;
#X obj 438 513 t b f;
#X connect 1 0 2 0;
#X connect 2 0 3 0;
#X connect 3 0 2 1;
#X connect 3 0 12 0;
#X connect 4 0 24 0;
#X connect 4 0 38 0;
#X connect 5 0 1 0;
#X connect 7 1 18 0;
#X connect 8 0 9 0;
#X connect 9 0 14 0;
#X connect 10 0 5 0;
#X connect 11 0 5 1;
#X connect 12 0 4 0;
#X connect 14 0 6 0;
#X connect 15 0 16 0;
#X connect 15 0 17 0;
#X connect 16 0 7 0;
#X connect 18 0 8 0;
#X connect 18 1 13 0;
#X connect 20 0 21 0;
#X connect 21 0 22 0;
#X connect 23 0 12 1;
#X connect 26 0 1 0;
#X connect 34 0 33 0;
#X connect 34 0 33 1;
#X connect 35 0 37 0;
#X connect 36 0 34 0;
#X connect 37 0 34 0;
#X connect 38 0 36 0;
#X connect 38 1 35 0;
