#N canvas 321 28 1033 738 10;
#X msg 40 48 \; pd dsp 1;
#X msg 360 655 all \$1;
#X msg 288 313 1;
#X obj 288 335 + 1;
#X floatatom 288 357 5 0 0 0 - - -;
#X floatatom 291 417 5 0 0 0 - - -;
#X obj 287 284 metro 200;
#X obj 360 677 clone drip_player 18;
#X obj 449 404 random 18;
#X obj 452 217 adc~;
#X obj 479 255 bonk~;
#X floatatom 440 323 5 0 0 0 - - -;
#X obj 443 355 t b;
#X obj 281 265 tgl 15 0 empty empty empty 17 7 0 10 -262144 -1 -1 0
1;
#X floatatom 332 262 5 0 0 0 - - -;
#X obj 291 395 % 18;
#X floatatom 540 324 5 0 0 0 - - -;
#X obj 449 382 bng 15 250 50 0 empty empty empty 17 7 0 10 -262144
-1 -1;
#X obj 507 74 vsl 15 128 0 127 0 0 empty empty empty 0 -9 0 10 -262144
-1 -1 6300 1;
#X msg 506 214 minvel \$1;
#X floatatom 554 180 5 0 0 0 - - -;
#X obj 487 297 unpack f f;
#N canvas 0 22 450 278 (subpatch) 0;
#X array sequencer1 16 float 3;
#A 0 16.3286 15.4286 5.27143 9.64286 15.1714 16.3286 11.8286 14.4 14.2714
14.1429 12.4714 16.4571 6.29999 12.4714 5.91429 16.4571;
#X coords 0 18 16 0 200 140 1 0 0;
#X restore 622 326 graph;
#X obj 434 443 tabread sequencer1;
#X floatatom 434 464 5 0 0 0 - - -;
#X obj 433 500 i;
#X floatatom 335 360 5 0 0 0 - - -;
#X obj 239 448 s currentlocation;
#X obj 625 473 hsl 195 15 0 16 0 0 empty currentlocation empty -2 -8
0 10 -262144 -1 -1 10912 1;
#X obj 25 114 bng 50 250 50 0 single_sound empty empty 17 7 0 10 -262144
-1 -1;
#X obj 397 300 r single_sound;
#X obj 100 116 tgl 50 0 sound_sequence empty empty 17 7 0 10 -262144
-1 -1 0 1;
#X obj 282 238 r sound_sequence;
#X connect 1 0 7 0;
#X connect 2 0 3 0;
#X connect 3 0 4 0;
#X connect 4 0 3 1;
#X connect 4 0 15 0;
#X connect 5 0 27 0;
#X connect 5 0 1 0;
#X connect 6 0 2 0;
#X connect 9 0 10 0;
#X connect 10 1 21 0;
#X connect 11 0 12 0;
#X connect 12 0 17 0;
#X connect 13 0 6 0;
#X connect 14 0 6 1;
#X connect 15 0 5 0;
#X connect 17 0 8 0;
#X connect 18 0 19 0;
#X connect 18 0 20 0;
#X connect 19 0 10 0;
#X connect 21 0 11 0;
#X connect 21 1 16 0;
#X connect 23 0 24 0;
#X connect 24 0 25 0;
#X connect 25 0 1 0;
#X connect 26 0 15 1;
#X connect 30 0 2 0;
