#N canvas 231 377 809 501 10;
#X obj 330 410 dac~;
#X obj 308 110 inlet;
#X obj 331 363 readsf~;
#X obj 378 301 i \$1;
#X msg 327 298 1;
#X msg 379 324 open sounds/\$1.wav;
#X obj 338 252 t b f;
#X text 388 173 send me a number that corresponds with a soundfile
name;
#X connect 1 0 6 0;
#X connect 2 0 0 0;
#X connect 2 0 0 1;
#X connect 3 0 5 0;
#X connect 4 0 2 0;
#X connect 5 0 2 0;
#X connect 6 0 4 0;
#X connect 6 1 3 0;
